<svg id="visual" viewBox="0 0 675 900" width="675" height="900" xmlns="http://www.w3.org/2000/svg" xmlns:xlink="http://www.w3.org/1999/xlink" version="1.1"><rect x="0" y="0" width="675" height="900" fill="#2D3F7B"></rect><path d="M0 116L22.5 107C45 98 90 80 135 78.8C180 77.7 225 93.3 270 100.2C315 107 360 105 405 94.5C450 84 495 65 540 61.8C585 58.7 630 71.3 652.5 77.7L675 84L675 0L652.5 0C630 0 585 0 540 0C495 0 450 0 405 0C360 0 315 0 270 0C225 0 180 0 135 0C90 0 45 0 22.5 0L0 0Z" fill="#FFFEF9" stroke-linecap="round" stroke-linejoin="miter"></path></svg>